<svg xmlns="http://www.w3.org/2000/svg" viewBox="0 0 91.96 92.06"><defs><style>.cls-1{fill:#37203a;}.cls-2{fill:#faa300;}</style></defs><g id="Layer_2" data-name="Layer 2"><rect class="cls-1" width="91.96" height="92.06"/></g><g id="Layer_1" data-name="Layer 1"><g id="Layer_2-2" data-name="Layer 2"><g id="Layer_1-2" data-name="Layer 1-2"><path class="cls-2" d="M38.75,45.84v20a14.49,14.49,0,0,0,7.3,2.28,13.53,13.53,0,0,0,7.05-2.28v-20a22,22,0,1,0-14.35,0Zm7.15-30.2a9.43,9.43,0,1,1-9.38,9.48h0a9.37,9.37,0,0,1,9.27-9.48Z" transform="translate(0.03)"/><path class="cls-2" d="M46.41,89A47.81,47.81,0,0,1,9.21,69.67l9.9-7.92a35.29,35.29,0,0,0,27.3,14.56A35,35,0,0,0,73,62.53l9.75,8.13A47.39,47.39,0,0,1,46.41,89Z" transform="translate(0.03)"/></g></g></g></svg>