<?xml version="1.0" encoding="UTF-8" standalone="no"?>
<!-- Created with Inkscape (http://www.inkscape.org/) -->

<svg
   xmlns:dc="http://purl.org/dc/elements/1.1/"
   xmlns:cc="http://creativecommons.org/ns#"
   xmlns:rdf="http://www.w3.org/1999/02/22-rdf-syntax-ns#"
   xmlns:svg="http://www.w3.org/2000/svg"
   xmlns="http://www.w3.org/2000/svg"
   xmlns:sodipodi="http://sodipodi.sourceforge.net/DTD/sodipodi-0.dtd"
   xmlns:inkscape="http://www.inkscape.org/namespaces/inkscape"
   width="73.181488mm"
   height="49.87606mm"
   viewBox="0 0 259.30448 176.7262"
   id="svg2"
   version="1.1"
   inkscape:version="0.91 r13725"
   sodipodi:docname="logo.svg">
  <defs
     id="defs4">
    <clipPath
       id="clipPath4150"
       clipPathUnits="userSpaceOnUse">
      <path
         inkscape:connector-curvature="0"
         id="path4152"
         d="m 291.096,58.65 212.904,0 0,33.75 -212.904,0 0,-33.75 z" />
    </clipPath>
  </defs>
  <sodipodi:namedview
     id="base"
     pagecolor="#ffffff"
     bordercolor="#666666"
     borderopacity="1.0"
     inkscape:pageopacity="0.0"
     inkscape:pageshadow="2"
     inkscape:zoom="1.4142136"
     inkscape:cx="136.84814"
     inkscape:cy="114.71837"
     inkscape:document-units="px"
     inkscape:current-layer="layer1"
     showgrid="false"
     fit-margin-top="0"
     fit-margin-left="0"
     fit-margin-right="0"
     fit-margin-bottom="0"
     inkscape:window-width="1359"
     inkscape:window-height="845"
     inkscape:window-x="331"
     inkscape:window-y="75"
     inkscape:window-maximized="0" />
  <metadata
     id="metadata7">
    <rdf:RDF>
      <cc:Work
         rdf:about="">
        <dc:format>image/svg+xml</dc:format>
        <dc:type
           rdf:resource="http://purl.org/dc/dcmitype/StillImage" />
        <dc:title></dc:title>
      </cc:Work>
    </rdf:RDF>
  </metadata>
  <g
     inkscape:label="Calque 1"
     inkscape:groupmode="layer"
     id="layer1"
     transform="translate(-594.94581,-1553.6639)">
    <path
       style="fill:#000000;fill-opacity:1"
       d="m 636.34532,1723.3625 c 0.90415,-19.7363 4.61705,-40.3916 10.82209,-60.2042 1.03016,-3.2893 1.95859,-6.3394 2.0632,-6.778 0.10459,-0.4386 -0.974,1.1097 -2.39688,3.4406 -7.43239,12.1757 -17.74316,25.4773 -25.61141,33.0408 l -2.28125,2.1929 0.23834,-5.5819 c 0.56473,-13.2256 3.79186,-30.2401 8.41067,-44.3439 0.98276,-3.001 1.73257,-5.5104 1.66625,-5.5768 -0.0663,-0.066 -0.63326,0.8223 -1.25988,1.9746 -1.82982,3.3651 -7.84381,12.1512 -11.05486,16.1506 -3.46998,4.3218 -9.78535,11.2622 -10.24796,11.2622 -0.60617,0 0.4277,-11.7195 1.63552,-18.5397 0.84322,-4.7613 3.18148,-14.2022 4.38103,-17.6887 0.41211,-1.1978 0.69431,-2.2328 0.62712,-2.3001 -0.0672,-0.067 -1.36755,1.8013 -2.88967,4.1522 -3.23213,4.9919 -7.94192,10.9336 -11.13105,14.0425 l -2.24945,2.1929 0.24498,-3.1896 c 1.83665,-23.9135 12.23721,-48.1894 27.50156,-64.1913 l 3.04261,-3.1896 -0.23825,4.3406 c -0.27929,5.0887 -1.41177,12.0755 -2.81211,17.349 -0.54737,2.0614 -0.92382,3.8193 -0.83656,3.9066 0.0872,0.088 0.82742,-1.0611 1.64478,-2.5519 2.42149,-4.4165 8.00547,-12.649 11.66765,-17.2014 3.99552,-4.9669 9.69235,-11.2254 10.218,-11.2254 0.51551,0 -0.009,7.8558 -0.96277,14.4145 -1.05396,7.2491 -3.26712,16.8373 -5.00145,21.6681 -0.58933,1.6415 0.55002,-0.1081 3.59511,-5.5208 7.23621,-12.8623 18.12134,-27.3575 27.14202,-36.1437 l 3.07009,-2.9903 -0.2681,5.1832 c -0.63437,12.2643 -3.50027,28.6123 -7.01755,40.0307 -0.43247,1.4039 -0.72492,2.6139 -0.64991,2.689 0.075,0.075 1.09689,-1.6119 2.27086,-3.7488 9.81496,-17.8648 23.54072,-36.5795 36.76249,-50.1247 l 5.06904,-5.193 0.0145,2.8592 c 0.0391,7.7577 -1.73349,23.4283 -4.00626,35.4163 -7.13652,37.6424 -24.89844,78.1403 -47.56368,108.4473 -6.39731,8.5542 -14.5605,18.0365 -20.59454,23.9223 l -3.26996,3.1895 0.25571,-5.5818 z m 83.99203,-51.2686 c -7.22293,-1.4169 -12.74381,-5.1337 -15.39425,-10.3641 -1.04435,-2.061 -2.15622,-6.3868 -2.16917,-8.4395 l -0.007,-1.0963 4.97621,0 4.9762,0 0.22506,1.0963 c 1.14502,5.5779 3.26372,8.2183 8.14161,10.1466 3.18936,1.2607 9.63035,1.2529 12.84228,-0.016 2.75748,-1.089 5.34613,-3.7187 5.74299,-5.8341 0.44344,-2.3637 -0.023,-4.8558 -1.19699,-6.3949 -1.71196,-2.2445 -5.08673,-3.6561 -13.33354,-5.5773 -8.62656,-2.0096 -11.20597,-2.9028 -14.19184,-4.9146 -3.54086,-2.3857 -5.2018,-5.0859 -5.8219,-9.4647 -1.53365,-10.8296 7.69043,-19.311 21.0018,-19.311 12.53781,0 20.82916,6.2593 22.31395,16.8452 l 0.26563,1.8939 -5.04158,0 c -3.69504,0 -5.07784,-0.1332 -5.17735,-0.4984 -1.09406,-4.0161 -1.58975,-5.1215 -2.90292,-6.4736 -2.14483,-2.2085 -4.44979,-3.0826 -8.71674,-3.3058 -4.3423,-0.2271 -7.4755,0.5357 -9.49928,2.3125 -1.81129,1.5904 -2.38089,3.1169 -2.15944,5.7872 0.33288,4.0142 3.22646,6.0169 11.52088,7.9739 11.74314,2.7706 16.03236,4.4355 19.10163,7.4141 3.25295,3.1569 4.89325,8.6678 4.035,13.5565 -1.69853,9.6751 -10.20588,15.1805 -23.26231,15.0538 -2.47622,-0.024 -5.29727,-0.1997 -6.269,-0.3903 z m 101.04397,-0.2234 c -6.13799,-1.3025 -11.66149,-5.0929 -14.10642,-9.6801 -1.23877,-2.3241 -2.41859,-6.6402 -2.43286,-8.9001 l -0.007,-1.0963 4.95076,0 4.95075,0 0.43037,2.0066 c 1.14185,5.3243 4.6641,8.7047 10.32065,9.9049 6.12335,1.2992 12.18878,-0.3745 15.07623,-4.1601 2.08247,-2.7302 1.63867,-7.521 -0.91028,-9.826 -1.32039,-1.194 -5.15886,-2.7232 -9.38329,-3.738 -10.25382,-2.4634 -12.25481,-3.047 -14.91954,-4.3525 -4.91468,-2.4078 -7.38315,-5.642 -8.17166,-10.7068 -0.98249,-6.3107 2.12511,-12.6902 7.80245,-16.0173 3.75961,-2.2033 6.8314,-3.0576 11.78226,-3.2771 12.63757,-0.5602 21.25866,5.0133 23.36257,15.1036 0.34249,1.6425 0.44698,3.0074 0.24564,3.2087 -0.19269,0.1927 -2.47698,0.2996 -5.07625,0.2375 l -4.72592,-0.1129 -0.46931,-1.8423 c -1.45662,-5.718 -5.32513,-8.3247 -12.35449,-8.3247 -6.58339,0 -10.55113,2.7566 -10.55113,7.3303 0,4.7552 2.90806,6.8742 12.4388,9.0636 11.06081,2.5408 15.23862,4.2007 18.31446,7.2765 5.94695,5.947 5.48142,16.9835 -0.96235,22.8161 -2.55872,2.3162 -6.66632,4.2712 -10.73601,5.1102 -3.83066,0.7897 -11.09017,0.7781 -14.86851,-0.024 z m -67.38631,-1.0096 c -0.11051,-0.2893 -0.1545,-13.3542 -0.0978,-29.0333 l 0.10317,-28.5073 16.74555,0.01 c 16.45677,0.01 16.78983,0.025 19.31353,0.9269 6.5978,2.3582 9.00095,5.9467 8.98513,13.4173 -0.009,3.9656 -0.11097,4.5802 -1.07083,6.4151 -1.12248,2.1459 -3.07583,4.1006 -5.19062,5.1942 l -1.27618,0.6601 2.44182,1.1535 c 5.22058,2.4662 7.68273,6.3143 8.00703,12.5142 0.27554,5.2678 -0.73435,8.4687 -3.67339,11.6432 -2.31599,2.5015 -4.94839,4.0404 -8.79742,5.1428 -2.04222,0.585 -4.79889,0.7075 -18.84067,0.8377 -13.35908,0.1238 -16.48619,0.054 -16.64936,-0.3735 z m 31.97541,-8.323 c 6.29988,-2.3629 8.22492,-10.4448 3.5586,-14.94 -2.49484,-2.4033 -3.53537,-2.5806 -15.14131,-2.5806 l -10.22036,0 0,8.9708 0,8.9708 10.34034,0 c 6.28398,0 10.78063,-0.1651 11.46273,-0.421 z m -1.17194,-25.7092 c 3.04751,-1.2734 4.4872,-3.6341 4.4872,-7.3577 0,-2.9219 -0.67251,-4.6749 -2.32788,-6.0677 -2.23541,-1.881 -3.54341,-2.0854 -13.42091,-2.0976 l -9.17018,-0.011 -0.10794,8.0737 -0.10792,8.0738 9.58994,0 c 7.72812,0 9.8749,-0.1192 11.05769,-0.6133 z"
       id="path4171"
       inkscape:connector-curvature="0" />
  </g>
</svg>
