<?xml version="1.0" encoding="utf-8"?>
<!-- Generator: Adobe Illustrator 16.0.4, SVG Export Plug-In . SVG Version: 6.00 Build 0)  -->
<!DOCTYPE svg PUBLIC "-//W3C//DTD SVG 1.1//EN" "http://www.w3.org/Graphics/SVG/1.1/DTD/svg11.dtd">
<svg version="1.1" id="Layer_1" xmlns="http://www.w3.org/2000/svg" xmlns:xlink="http://www.w3.org/1999/xlink" x="0px" y="0px"
	 width="62px" height="73px" viewBox="68.875 -3.125 62 73" enable-background="new 68.875 -3.125 62 73" xml:space="preserve">
<title>tourismaus</title>
<g>
	<path fill="#004F76" d="M73.718,61.426c-0.036-0.059-0.097-0.099-0.167-0.107h-0.098c-0.069,0.01-0.13,0.049-0.167,0.107
		l-3.007,6.592c-0.046,0.084-0.015,0.189,0.068,0.234c0.03,0.017,0.064,0.023,0.098,0.021h0.618c0.097,0,0.185-0.058,0.224-0.147
		c0.197-0.449,0.4-0.891,0.597-1.341h3.204l0.608,1.341c0.034,0.094,0.125,0.153,0.224,0.147h0.618
		c0.095,0.009,0.179-0.062,0.187-0.157c0.002-0.033-0.004-0.067-0.021-0.098L73.718,61.426z M72.268,65.941l1.196-2.685h0.049
		l1.205,2.685H72.268z"/>
	<path fill="#004F76" d="M83.417,61.416H82.76c-0.103,0-0.187,0.082-0.188,0.186l0,0v4.065c0.048,0.903-0.646,1.675-1.549,1.724
		c-0.903,0.047-1.675-0.646-1.723-1.55c-0.003-0.064-0.003-0.129,0.001-0.192v-4.047c0-0.102-0.083-0.186-0.186-0.186H78.46
		c-0.101,0.004-0.182,0.085-0.186,0.186v4.115c-0.033,1.433,1.102,2.621,2.534,2.653c0.04,0.001,0.08,0.001,0.119,0
		c1.439,0.038,2.636-1.099,2.674-2.537c0.001-0.038,0.001-0.077,0-0.116v-4.115C83.598,61.502,83.517,61.42,83.417,61.416"/>
	<path fill="#004F76" d="M87.876,64.325c-0.813-0.333-1.245-0.677-1.245-1.235c0-0.361,0.285-0.882,1.107-0.882
		c0.474,0.056,0.927,0.225,1.322,0.491c0.105,0.072,0.249,0.045,0.321-0.061c0.008-0.012,0.015-0.023,0.021-0.037
		c0.079-0.118,0.168-0.254,0.247-0.373c0.076-0.104,0.054-0.249-0.049-0.325c-0.003-0.003-0.006-0.005-0.01-0.007
		c-0.535-0.366-1.165-0.566-1.813-0.578c-1.048-0.129-2.003,0.615-2.132,1.664c-0.006,0.049-0.01,0.098-0.012,0.147
		c0,1.136,0.784,1.656,1.783,2.077c0.97,0.402,1.479,0.773,1.479,1.361c-0.038,0.543-0.509,0.953-1.051,0.915
		c-0.019-0.001-0.038-0.003-0.056-0.005c-0.579-0.062-1.125-0.297-1.567-0.674c-0.097-0.074-0.235-0.057-0.31,0.039
		c-0.009,0.012-0.017,0.024-0.023,0.037c-0.088,0.129-0.167,0.273-0.254,0.402c-0.073,0.087-0.062,0.217,0.026,0.291
		c0.01,0.008,0.021,0.016,0.033,0.022c0.584,0.507,1.333,0.782,2.106,0.774c1.099,0.105,2.075-0.701,2.18-1.801
		c0.001-0.017,0.003-0.033,0.004-0.051C89.982,65.326,89.012,64.786,87.876,64.325"/>
	<path fill="#004F76" d="M96.754,61.416h-4.926c-0.103,0-0.186,0.084-0.186,0.186l0,0v0.549c0,0.104,0.083,0.187,0.186,0.187l0,0
		h1.954v5.75c0.003,0.101,0.084,0.183,0.186,0.186h0.646c0.101-0.003,0.182-0.085,0.186-0.186v-5.75h1.954
		c0.103-0.001,0.186-0.083,0.186-0.187v-0.549C96.94,61.5,96.857,61.416,96.754,61.416"/>
	<path fill="#004F76" d="M103.908,63.513c-0.01-1.167-0.965-2.106-2.133-2.097c-0.002,0-0.003,0-0.004,0h-2.665
		c-0.103,0-0.186,0.084-0.186,0.186v6.485c0,0.103,0.083,0.186,0.186,0.186h0.636c0.102-0.003,0.184-0.084,0.187-0.186V65.59h1.481
		l1.301,2.595c0.033,0.055,0.092,0.089,0.156,0.088h0.766c0.102,0.005,0.189-0.073,0.194-0.175c0.003-0.038-0.008-0.076-0.028-0.108
		l-1.343-2.489C103.305,65.202,103.882,64.412,103.908,63.513 M101.693,64.746h-1.745v-2.381h1.745
		c0.647,0.003,1.176,0.52,1.195,1.167C102.887,64.195,102.355,64.734,101.693,64.746"/>
	<path fill="#004F76" d="M109.003,61.426c-0.036-0.059-0.098-0.098-0.167-0.107h-0.098c-0.068,0.009-0.13,0.049-0.166,0.107
		l-3.009,6.592c-0.046,0.084-0.015,0.189,0.069,0.234c0.03,0.018,0.064,0.023,0.1,0.021h0.613c0.099,0.001,0.188-0.058,0.227-0.147
		c0.196-0.449,0.401-0.891,0.598-1.341h3.203l0.607,1.341c0.035,0.094,0.126,0.152,0.225,0.147h0.619
		c0.096,0.007,0.178-0.063,0.186-0.159c0.002-0.033-0.005-0.066-0.021-0.096L109.003,61.426z M107.553,65.941l1.195-2.685h0.049
		l1.205,2.685H107.553z"/>
	<path fill="#004F76" d="M117.907,67.361h-2.923v-5.76c-0.003-0.101-0.084-0.182-0.186-0.186h-0.646
		c-0.103,0-0.187,0.083-0.188,0.186v6.485c0.001,0.103,0.084,0.187,0.188,0.187h3.755c0.103,0,0.186-0.084,0.186-0.187v-0.538
		C118.094,67.446,118.01,67.362,117.907,67.361C117.907,67.361,117.907,67.361,117.907,67.361"/>
	<path fill="#004F76" d="M120.883,61.416h-0.646c-0.102,0.004-0.184,0.084-0.188,0.186v6.485c0.004,0.102,0.086,0.183,0.188,0.186
		h0.646c0.101-0.004,0.182-0.085,0.186-0.186v-6.485C121.064,61.502,120.983,61.42,120.883,61.416"/>
	<path fill="#004F76" d="M129.469,68.018l-2.986-6.592c-0.036-0.059-0.098-0.098-0.166-0.107h-0.1
		c-0.068,0.01-0.129,0.049-0.166,0.107l-3.007,6.592c-0.046,0.084-0.015,0.189,0.069,0.234c0.029,0.017,0.063,0.023,0.098,0.021
		h0.617c0.098,0.001,0.186-0.058,0.225-0.147c0.196-0.449,0.4-0.891,0.598-1.341h3.203l0.605,1.341
		c0.037,0.094,0.129,0.152,0.229,0.147h0.615c0.096,0.009,0.179-0.062,0.188-0.156C129.492,68.082,129.486,68.048,129.469,68.018
		 M125.033,65.941l1.195-2.685h0.05l1.203,2.685H125.033z"/>
	<path fill="#004F76" d="M81.245,50.519h-4.926c-0.103,0-0.186,0.083-0.186,0.186l0,0v0.549c0,0.103,0.083,0.186,0.186,0.186l0,0
		h1.954v5.751c0.003,0.101,0.085,0.182,0.186,0.186h0.647c0.101-0.004,0.182-0.085,0.186-0.186v-5.751h1.954
		c0.103,0,0.186-0.083,0.186-0.186v-0.549C81.43,50.602,81.347,50.519,81.245,50.519"/>
	<path fill="#004F76" d="M85.893,50.462c1.944-0.005,3.523,1.565,3.529,3.509c0.005,1.944-1.566,3.524-3.51,3.529
		c-1.943,0.006-3.523-1.566-3.529-3.51c-0.008-1.939,1.557-3.52,3.498-3.528C85.885,50.462,85.889,50.462,85.893,50.462
		 M85.893,56.522c1.404,0.006,2.547-1.128,2.553-2.532s-1.128-2.547-2.532-2.553c-1.404-0.006-2.547,1.129-2.553,2.532
		c0,0.007,0,0.014,0,0.021C83.367,55.387,84.497,56.517,85.893,56.522"/>
	<path fill="#004F76" d="M91.294,50.744c0.003-0.102,0.084-0.182,0.186-0.186h0.656c0.102,0,0.184,0.083,0.184,0.185
		c0,0.001,0,0.001,0,0.001v4.038c-0.059,0.901,0.625,1.679,1.525,1.737c0.901,0.059,1.68-0.624,1.738-1.525
		c0.004-0.064,0.004-0.129,0.001-0.193v-4.057c0-0.103,0.083-0.186,0.186-0.186l0,0h0.656c0.101,0.004,0.182,0.084,0.186,0.186
		v4.107c-0.005,1.468-1.2,2.654-2.668,2.648c-1.461-0.004-2.645-1.188-2.65-2.648V50.744z"/>
	<path fill="#004F76" d="M99.01,50.744c0-0.102,0.083-0.186,0.186-0.186l0,0h2.66c1.164-0.012,2.117,0.922,2.129,2.086
		c0,0.002,0.001,0.004,0.001,0.006c-0.024,0.897-0.6,1.686-1.445,1.984l1.338,2.484c0.055,0.086,0.028,0.2-0.058,0.255
		c-0.032,0.021-0.07,0.03-0.109,0.028h-0.762c-0.064,0.001-0.123-0.033-0.156-0.088l-1.3-2.59h-1.477v2.492
		c-0.003,0.102-0.084,0.182-0.186,0.186h-0.635c-0.103,0-0.186-0.083-0.186-0.186l0,0V50.744z M101.776,53.883
		c0.661-0.012,1.192-0.551,1.192-1.213c-0.019-0.646-0.546-1.16-1.192-1.163h-1.741v2.376H101.776z"/>
	<path fill="#004F76" d="M106.33,50.559h0.645c0.104,0,0.188,0.084,0.188,0.188l0,0v6.471c0,0.102-0.082,0.186-0.186,0.186l0,0
		h-0.646c-0.102,0-0.186-0.084-0.186-0.186l0,0v-6.473C106.145,50.642,106.229,50.559,106.33,50.559z"/>
	<path fill="#004F76" d="M109.375,56.416c0.088-0.129,0.166-0.275,0.254-0.402c0.055-0.109,0.188-0.154,0.299-0.1
		c0.012,0.006,0.023,0.014,0.035,0.021c0.439,0.378,0.985,0.613,1.562,0.676c0.539,0.066,1.031-0.315,1.1-0.854
		c0.002-0.019,0.004-0.036,0.005-0.056c0-0.587-0.507-0.958-1.476-1.358c-0.997-0.421-1.779-0.939-1.779-2.072
		c0.048-1.054,0.94-1.868,1.994-1.821c0.049,0.002,0.098,0.007,0.146,0.013c0.646,0.011,1.275,0.212,1.809,0.576
		c0.107,0.071,0.138,0.216,0.066,0.323c-0.002,0.003-0.004,0.006-0.007,0.01c-0.078,0.117-0.167,0.254-0.245,0.371
		c-0.052,0.117-0.188,0.17-0.306,0.118c-0.013-0.006-0.024-0.013-0.036-0.021c-0.395-0.266-0.848-0.432-1.319-0.488
		c-0.821,0-1.105,0.518-1.105,0.879c0,0.559,0.431,0.9,1.241,1.232c1.135,0.459,2.102,0.997,2.102,2.189
		c-0.076,1.1-1.029,1.929-2.129,1.853c-0.017-0.001-0.033-0.003-0.051-0.005c-0.771,0.008-1.518-0.268-2.102-0.771
		c-0.1-0.055-0.136-0.182-0.08-0.281C109.359,56.436,109.367,56.426,109.375,56.416"/>
	<path fill="#004F76" d="M116.686,50.607c0.021-0.082,0.094-0.141,0.178-0.146h0.155c0.071,0.004,0.134,0.045,0.166,0.108
		l2.044,4.995h0.038l2.034-4.995c0.029-0.065,0.095-0.108,0.166-0.108h0.156c0.084,0.006,0.154,0.064,0.176,0.146l1.203,6.57
		c0.033,0.086-0.01,0.182-0.096,0.215c-0.025,0.01-0.053,0.014-0.08,0.01h-0.635c-0.086-0.002-0.16-0.057-0.188-0.137l-0.724-4.371
		h-0.028l-1.762,4.498c-0.023,0.069-0.092,0.113-0.164,0.107h-0.176c-0.072,0.004-0.139-0.039-0.167-0.107l-1.771-4.498h-0.037
		l-0.705,4.371c-0.023,0.078-0.094,0.134-0.176,0.137h-0.635c-0.097,0.011-0.183-0.059-0.193-0.155
		c-0.002-0.023,0-0.048,0.008-0.069L116.686,50.607z"/>
	<path fill="#004F76" d="M102.217,25.262c-0.8-0.604-1.738-0.997-2.729-1.144c-1.29,1.208-2.738,2.234-4.305,3.052
		c-1.821,1.115-5.606,2.967-5.606,2.967c-2.131,1.005-4.173,2.191-6.102,3.545c-3.079,2.695-2.21,5.201-1.644,5.201
		c0.523,0,1.431-1.662,4.014-3.625c4.002-3.008,8.413-5.432,13.098-7.198c1.045-0.401,3.37-1.087,3.944-1.255
		c-0.02-0.559-0.242-1.09-0.627-1.496L102.217,25.262z"/>
	<path fill="#004F76" d="M117.639,6.841c0.365-0.938,0.483-1.358-0.098-1.608c-0.484-0.209-1.322-0.447-1.438-0.304
		C115.93,5.151,117.369,6.67,117.639,6.841"/>
	<path fill="#A52960" d="M113.08,19.944c-0.039-1.78-0.869-3.452-2.264-4.56c-0.154-0.123-0.316-0.239-0.483-0.346
		c-0.894-0.573-1.925-0.895-2.986-0.93c-3.283-0.109-6.033,2.464-6.143,5.747c-0.001,0.014-0.001,0.026-0.001,0.04
		c-0.061,1.697,0.625,3.336,1.879,4.482c0.021,0.021,0.038,0.042,0.056,0.056c1.366,1.44,1.307,3.717-0.134,5.083
		c-0.264,0.25-0.564,0.459-0.893,0.619c3.439-1.965,8.016-4.097,10.447-6.936c0.002-0.009,0.005-0.017,0.009-0.024
		C112.905,22.133,113.078,21.042,113.08,19.944"/>
	<path fill="#EF412C" d="M99.405,15.682c-3.539,2.222-7.857,2.829-11.872,1.669c-6.773-1.844-10.956-9.509-11.26-10.014
		c-0.507-0.847-1.01-0.649-0.708,0.29c1.08,3.203,2.885,6.113,5.275,8.505c3.989,3.671,9.123,5.854,14.535,6.179
		c5.588,0.378,7.218,1.597,7.707,2.067c-1.254-1.146-1.94-2.785-1.879-4.482c0.086-3.283,2.818-5.874,6.102-5.787
		c0.014,0.001,0.029,0.001,0.043,0.002c1.061,0.034,2.092,0.355,2.984,0.928l-0.02-0.018
		C108.221,13.572,103.486,13.167,99.405,15.682"/>
	<path fill="#12C3F4" d="M102.111,30.137c-0.884,0.504-5.584,3.43-5.765,3.54l-0.003,0.002c-3.913,1.973-7.514,4.513-10.686,7.537
		c-2.196,2.202-1.786,5.261-1.196,5.261c0.584,0,1.916-1.885,4.379-4.203c5.543-5.225,14.186-9.344,17.913-11.927
		c2.641-1.71,4.674-4.211,5.807-7.146C110.127,26.04,105.552,28.172,102.111,30.137"/>
	<path fill="#EF412C" d="M123.986,5.304c-1.326-0.29-2.672-0.49-4.026-0.598c-0.573-0.508-1.897-1.418-2.175-1.265
		c-0.288,0.161,0.916,1.869,1.06,2.212c-0.138,0.813-0.421,1.596-0.837,2.309c-1.402,2.395-4.023,3.806-6.794,3.657
		c1.586,0.035,6.022,0.15,9.151-2.421c0.244-0.208,0.488-0.431,0.727-0.669c0.678-0.729,1.561-1.237,2.531-1.458
		C124.305,6.846,124.499,5.496,123.986,5.304"/>
	<path fill="#8FB73E" d="M117.648,15.935l-0.002,0.004c0.354,1.399,0.502,2.843,0.438,4.285c-0.294,1.408,1.074,0.832,1.34-1.055
		c0.186-1.316,0.2-4.703,0.2-4.703c-0.041-1.381,0.134-2.759,0.518-4.086C119.549,11.777,118.751,13.777,117.648,15.935"/>
	<path fill="#FFC20E" d="M99.19,14.145c2.099-1.562,4.474-2.717,6.999-3.402c0.356-0.09,0.723-0.165,1.088-0.224
		c1.701-4.71-0.738-9.907-5.448-11.607c-4.71-1.701-9.907,0.738-11.607,5.448c-1.688,4.673,0.701,9.834,5.355,11.573
		c1.081-0.337,2.112-0.813,3.07-1.417C98.816,14.402,98.999,14.277,99.19,14.145"/>
	<path fill="#FFC20E" d="M120.365,9.197c-3.127,2.572-7.563,2.457-9.151,2.422c-1.575-0.022-3.149,0.135-4.688,0.471
		c-2.58,0.735-4.995,1.955-7.119,3.593c4.08-2.517,8.813-2.109,10.906-0.661l0.021,0.018c0.166,0.106,0.327,0.223,0.481,0.346
		c1.396,1.106,2.226,2.778,2.263,4.56c-0.001,1.098-0.174,2.188-0.51,3.232l0.003,0.013c2.058-2.141,3.771-4.588,5.076-7.254
		c1.103-2.157,1.901-4.158,2.495-5.556c0.232-0.656,0.553-1.278,0.949-1.852C120.854,8.767,120.609,8.989,120.365,9.197"/>
</g>
</svg>
