<?xml version="1.0" encoding="utf-8"?>
<!-- Generator: Adobe Illustrator 19.2.1, SVG Export Plug-In . SVG Version: 6.00 Build 0)  -->
<svg version="1.1" id="layer" xmlns="http://www.w3.org/2000/svg" xmlns:xlink="http://www.w3.org/1999/xlink" x="0px" y="0px"
	 viewBox="0 0 652 652" style="enable-background:new 0 0 652 652;" xml:space="preserve">
<style type="text/css">
	.st0{fill:#D6083B;}
</style>
<g id="Logo_x2F_Red">
	<g id="Group">
		<path id="Fill-1" class="st0" d="M112.1,404H123h0.3v-0.3v-2.8v-0.3H123h-10.9v-2.8c0-5.4,2-7.9,6.2-7.9c1.5,0,2.8,0.2,4.7,0.8
			l0.4,0.1v-0.4v-2.9v-0.2l-0.2-0.1c-1.6-0.6-3-0.8-4.9-0.8c-6.3,0-9.9,4.1-9.9,11.3v2.8H104h-0.3v0.3v2.8v0.3h0.3h4.3v29.1v0.3h0.3
			h3.1h0.3v-0.3V404z"/>
		<path id="Fill-3" class="st0" d="M174.3,428l0.2-0.2l-0.2-0.2l-2.1-1.9l-0.2-0.2l-0.2,0.2c-3.1,3.4-6.6,5-10.8,5
			c-6.6,0-11.6-5-12.2-12.1h26.3h0.3l0-0.3c0.1-0.5,0.1-0.7,0.1-1.2V417c0-10.1-6.2-17.2-15-17.2c-8.7,0-15.5,7.5-15.5,17.2v0.1
			c0,9.8,6.9,17.2,16,17.2C166.2,434.2,170.3,432.3,174.3,428 M160.1,403.2c7.5,0,10.7,6.3,11.2,11.9h-22.6
			C149.3,408.2,154.1,403.2,160.1,403.2"/>
		<path id="Fill-5" class="st0" d="M211.6,400.8v-0.3h-0.3h-3.1h-0.3v0.3v5.9c-3.3-4.7-7.7-7-12.9-7c-7.8,0-15.9,6.4-15.9,17.2v0.1
			c0,6.3,2.7,10.3,5,12.6c2.9,2.9,6.9,4.5,10.9,4.5c5.1,0,9.5-2.4,12.9-7.3v16.3v0.3h0.3h3.1h0.3v-0.3V400.8z M195.3,430.6
			c-7,0-12.3-5.9-12.3-13.6v-0.1c0-7.9,5-13.5,12.3-13.5c7.9,0,12.8,7,12.8,13.5v0.1C208.1,423.5,203.2,430.6,195.3,430.6z"/>
		<path id="Fill-7" class="st0" d="M246.8,400.8v-0.3h-0.3h-3.1h-0.3v0.3v18.7c0,6.4-4.6,11.2-10.8,11.2c-6.2,0-9.9-4-9.9-10.7
			v-19.2v-0.3h-0.3H219h-0.3v0.3v19.8c0,8.3,5.2,13.6,13.1,13.6c4.9,0,8.7-2,11.2-6v4.9v0.3h0.3h3.1h0.3v-0.3V400.8z"/>
		<path id="Fill-9" class="st0" d="M281.9,428l0.2-0.2l-0.2-0.2l-2.1-1.9l-0.2-0.2l-0.2,0.2c-3.1,3.4-6.6,5-10.8,5
			c-6.6,0-11.6-5-12.2-12.1h26.3h0.3l0-0.3c0.1-0.5,0.1-0.7,0.1-1.2V417c0-10.1-6.2-17.2-15-17.2c-8.7,0-15.5,7.5-15.5,17.2v0.1
			c0,9.8,6.9,17.2,16,17.2C273.8,434.2,277.9,432.3,281.9,428 M267.7,403.2c7.5,0,10.7,6.3,11.2,11.9h-22.6
			C256.9,408.2,261.7,403.2,267.7,403.2"/>
		<path id="Fill-11" class="st0" d="M316.4,413.4c0-8.3-5.2-13.6-13.1-13.6c-4.9,0-8.7,2-11.3,6v-4.9v-0.3h-0.3h-3.1h-0.3v0.3v32.3
			v0.3h0.3h3.1h0.3v-0.3v-18.7c0-6.4,4.6-11.2,10.8-11.2c6.2,0,9.9,4,9.9,10.7v19.2v0.3h0.3h3.1h0.3v-0.3V413.4z"/>
		<path id="Fill-13" class="st0" d="M339.1,432.8l0.2-0.1v-0.2v-2.9v-0.5l-0.4,0.2c-1.8,0.8-3.1,1.1-4.6,1.1c-4,0-6.1-2-6.1-6V404
			h10.9h0.3v-0.3v-2.8v-0.3h-0.3h-10.9v-10v-0.3h-0.3h-3.1h-0.3v0.3v10h-4.3h-0.3v0.3v2.8v0.3h0.3h4.3v20.8c0,5.8,3.5,9.2,9.3,9.2
			C335.8,434,337.4,433.7,339.1,432.8"/>
		<path id="Fill-15" class="st0" d="M366.1,404H377h0.3v-0.3v-2.8v-0.3H377h-10.9v-2.8c0-5.4,2-7.9,6.2-7.9c1.5,0,2.8,0.2,4.7,0.8
			l0.4,0.1v-0.4v-2.9v-0.2l-0.2-0.1c-1.6-0.6-3-0.8-4.9-0.8c-6.3,0-9.9,4.1-9.9,11.3v2.8h-4.3h-0.3v0.3v2.8v0.3h0.3h4.3v29.1v0.3
			h0.3h3.1h0.3v-0.3V404z"/>
		<polygon id="Fill-17" class="st0" points="385.2,386.6 382.2,386.6 381.8,386.6 381.8,386.9 381.8,433.1 381.8,433.4 382.2,433.4 
			385.2,433.4 385.6,433.4 385.6,433.1 385.6,386.9 385.6,386.6 		"/>
		<path id="Fill-19" class="st0" d="M422.5,400.9l0.2-0.4h-0.5h-3.4h-0.2l-0.1,0.2l-11.3,28.2l-13-28.2l-0.1-0.2h-0.2h-3.6h-0.5
			l0.2,0.5l15.3,32c-2.3,5.3-4.3,7.3-7.6,7.3c-2.4,0-3.8-0.4-5.3-1.2l-0.3-0.1l-0.1,0.3l-1.1,2.7l-0.1,0.3l0.3,0.1
			c2.3,1,4.1,1.4,6.5,1.4c5,0,8.2-2.8,11-9.4L422.5,400.9z"/>
		<path id="Fill-21" class="st0" d="M452.7,428l0.2-0.2l-0.2-0.2l-2.1-1.9l-0.2-0.2l-0.2,0.2c-3.1,3.4-6.6,5-10.8,5
			c-6.6,0-11.6-5-12.2-12.1h26.3h0.3l0-0.3c0.1-0.5,0.1-0.7,0.1-1.2V417c0-10.1-6.2-17.2-15-17.2c-8.7,0-15.5,7.5-15.5,17.2v0.1
			c0,9.8,6.9,17.2,16,17.2C444.6,434.2,448.7,432.3,452.7,428 M438.5,403.2c7.5,0,10.7,6.3,11.2,11.9h-22.6
			C427.7,408.2,432.5,403.2,438.5,403.2"/>
		<path id="Fill-23" class="st0" d="M463.1,419.9c0-8.8,4.7-14.9,12.1-15.7l0.2,0l0.1-0.2l1.6-3.5l0.2-0.4l-0.5,0h-0.3
			c-5.5,0-10.5,3.3-13.3,8.6v-7.8v-0.3h-0.3h-3.1h-0.3v0.3v32.3v0.3h0.3h3.1h0.3v-0.3V419.9z"/>
		<polygon id="Fill-25" class="st0" points="56.6,365.3 67.9,365.3 104.2,280.8 90.2,280.8 62.4,349.3 34.9,281 34.8,280.8 
			20.5,280.8 56.5,365.1 		"/>
		<path id="Fill-27" class="st0" d="M144.8,366.6c14,0,24.6-4.8,34.3-15.7l0.2-0.2l-8.2-7.4l-0.2,0.2c-7.5,8-15.7,11.7-25.8,11.7
			c-15.5,0-27-11-28.7-27.5h65.5l0-0.3c0.2-1.5,0.2-2.8,0.2-3.9c0-12.3-3.6-23.5-10.2-31.5c-7-8.5-16.9-13-28.7-13
			c-11.1,0-21.2,4.5-28.7,12.8c-7.3,8.1-11.3,19.2-11.3,31C103.2,347.8,121,366.6,144.8,366.6 M142.8,290.1c11.4,0,24.2,7.3,26,27.7
			h-52.5C118.1,301.5,128.9,290.1,142.8,290.1"/>
		<polygon id="Fill-29" class="st0" points="194.5,364.7 207.5,364.7 207.5,246.5 194.5,246.5 		"/>
		<path id="Fill-31" class="st0" d="M262.9,366.6c24.5,0,43.7-19.3,43.7-44c0-24.5-19-43.7-43.3-43.7c-24.4,0-43.5,19.3-43.5,44
			C219.7,347.4,238.7,366.6,262.9,366.6 M262.9,290.6c17,0,30.4,14.2,30.4,32.4c0,18.2-12.9,31.9-30.1,31.9
			c-16.9,0-30.2-14.1-30.2-32.2C233,304.1,245.6,290.6,262.9,290.6"/>
		<path id="Fill-32" class="st0" d="M357.1,366.6c17.3,0,27.3-8.7,34-16.2l0.2-0.2l-8.3-7.9l-0.2,0.2c-7.7,8.3-15.8,12.3-25,12.3
			c-16.9,0-30.1-14.1-30.1-32.2c0-18,12.9-32,29.3-32c11.5,0,18.7,6,24.9,12.5l0.2,0.3l8.6-9.2l-0.2-0.2
			C384,287,374.3,279,357.1,279c-11.6,0-22.5,4.6-30.5,13c-7.9,8.3-12.2,19.3-12.2,30.9c0,11.6,4.3,22.5,12.2,30.7
			C334.7,362,345.5,366.6,357.1,366.6"/>
		<polygon id="Fill-33" class="st0" points="403.4,364.7 416.4,364.7 416.4,280.8 403.4,280.8 		"/>
		<path id="Fill-34" class="st0" d="M620.5,315c0-64.6-53.8-117.2-120-117.2c-24.7,0-48.4,7.3-68.6,21l8.7,9.9
			c17.7-11.6,38.3-17.8,59.8-17.8c59,0,107,46.7,107,104.1c0,55.7-46.4,103.4-103,106.1l55.2-139.9l0.2-0.5H546l-26.3,68.9
			l-29.8-68.9h-11.8h-2.6H452v-25.1h-13v25.1h-11.5v11.6H439v49.9c0,15.4,8.4,23.8,23.7,23.8c5.6,0,10.3-1.1,15-3.6l0.2-0.1v-11.4
			l-0.5,0.2c-4.2,2-7.6,2.9-11.9,2.9c-9.1,0-13.6-4.4-13.6-13.5v-48.3h28.8l32.5,71.7l-27.7,69.7c2,0.2,4.2,0.3,6.3,0.4
			c4.2,0.1,8.3,0.1,12.9-0.1C568.8,431.6,620.5,378.1,620.5,315"/>
		<path id="Fill-35" class="st0" d="M395.9,259.5c0.1,0,0.1,0,0.2,0c1.1,0.1,2.1-0.2,2.9-0.8l6.3-4.5l17.5,6.2l4.7-4l-13-9.6
			l6.9-5.1l5.9,1.6l3.5-2.9l-8.1-5.4l-2.8-9.3l-3.6,2.8l-0.2,6.1l-6.8,5l-5.2-15.5l-4.8,4l0.7,18.8l-6.3,4.5
			c-1.9,1.5-2.3,4.3-0.9,6.2C393.7,258.7,394.8,259.4,395.9,259.5"/>
		<path id="Fill-36" class="st0" d="M144.9,400l-0.5,0h-0.3c-5.5,0-10.5,3.3-13.3,8.6v-7.8v-0.3h-0.3h-3.1h-0.3v0.3v32.3v0.3h0.3
			h3.1h0.3v-0.3v-13.2c0-8.8,4.7-14.9,12.1-15.7l0.2,0l0.1-0.2l1.6-3.5L144.9,400z"/>
	</g>
</g>
</svg>
