<?xml version="1.0" encoding="utf-8"?>
<!-- Generator: Adobe Illustrator 21.0.0, SVG Export Plug-In . SVG Version: 6.00 Build 0)  -->
<svg version="1.1" id="Layer_1" xmlns="http://www.w3.org/2000/svg" xmlns:xlink="http://www.w3.org/1999/xlink" x="0px" y="0px"
	 viewBox="0 0 170.1 47.2" style="enable-background:new 0 0 170.1 47.2;" xml:space="preserve">
<style type="text/css">
	.st0{clip-path:url(#SVGID_2_);fill:#384E63;}
</style>
<g>
	<defs>
		<rect id="SVGID_1_" y="0" width="170.1" height="47.2"/>
	</defs>
	<clipPath id="SVGID_2_">
		<use xlink:href="#SVGID_1_"  style="overflow:visible;"/>
	</clipPath>
	<path class="st0" d="M127.6,46.8v-1.7c-0.4,0.1-0.8,0.1-1.7,0.1h-8.7l-0.9,1.5h9.6C126.6,46.7,127.2,46.7,127.6,46.8 M120,39.3h3.5
		c0.7,0,1.1,0,1.7,0c0-0.4-0.1-0.7-0.1-1.3v-1.4c0-0.5,0-0.8,0.1-1.2c-0.3,0-0.7,0-1.4,0h-4c-0.6,0-0.9,0-1.4,0
		c0,0.4,0.1,0.7,0.1,1.2v1.4c0,0.5,0,0.9-0.1,1.2C118.8,39.3,119.3,39.3,120,39.3 M120,36.9h3.6V38H120V36.9z M122.3,41.3V43
		c0,0.6,0,0.9,0,1.3c0.4,0,0.8-0.1,1.5-0.1h1.9c0.6,0,1.1,0,1.5,0.1c0-0.3-0.1-0.7-0.1-1.3v-1.6c0-0.6,0-1,0.1-1.4
		c-0.3,0-0.6,0.1-1.2,0.1h-2.5c-0.5,0-0.8,0-1.2,0C122.3,40.5,122.3,40.7,122.3,41.3 M123.8,41.4h1.8v1.5h-1.8V41.4z M116.7,41.3V43
		c0,0.6,0,0.9,0,1.3c0.4,0,0.8-0.1,1.5-0.1h1.9c0.6,0,1.1,0,1.5,0.1c0-0.3,0-0.6,0-1.3v-1.6c0-0.7,0-0.9,0-1.3c-0.3,0-0.5,0-1.2,0
		h-2.5c-0.6,0-0.9,0-1.2-0.1C116.7,40.4,116.7,40.7,116.7,41.3 M118.2,41.4h1.7v1.5h-1.7V41.4z M125.5,34.7c0.9,0,1.4,0,1.9,0.1
		v-1.6c-0.5,0.1-1,0.1-2,0.1h-9.3c-1,0-1.4,0-1.9-0.1c0,0.5,0.1,1,0.1,1.8v10c0,0.8,0,1.1-0.1,1.9c0.6-0.1,1.2-0.1,1.8-0.1v-12
		H125.5z M104.2,44.6v-3.2c2.1-1.5,3.4-2.8,5.4-5.4c0.2-0.2,0.2-0.3,0.3-0.4l-1.7-1.2c-0.2,0.5-0.7,1.2-1.4,2.1
		c-0.9,1.1-1.7,1.9-2.7,2.7v-4.6c0-0.8,0-1.4,0.1-1.9h-2c0.1,0.5,0.1,1.1,0.1,1.9v5.8c-0.9,0.5-1.5,0.8-2.7,1.2v-5
		c0.6-1.5,0.8-1.8,1.1-2.7c0.1-0.4,0.2-0.6,0.3-0.9l-1.8-0.5c-0.2,1.1-0.8,2.5-1.6,3.9c-0.7,1.1-1.2,1.8-2.2,2.8
		c0.5,0.9,0.5,0.9,0.8,1.9c0.6-0.7,1.3-1.5,1.6-2.1c0,1.2,0,1.2,0,1.8v3.8c0,0.7,0,1.4-0.1,2h1.9c-0.1-0.7-0.1-1.4-0.1-2v-2.8
		c0.4,0.5,0.7,0.9,1,1.5c0.8-0.4,1.1-0.5,1.7-0.8v2.5c0,1.4,0.5,1.7,3,1.7c2.6,0,3.4-0.2,3.9-0.8c0.4-0.5,0.6-1.5,0.7-3.5
		c-0.6-0.1-1.1-0.3-1.7-0.6c-0.1,1.9-0.2,2.5-0.4,2.9c-0.2,0.3-0.8,0.3-2.2,0.3C104.5,45.2,104.2,45.1,104.2,44.6 M92.6,45.3
		c-2.5-0.6-4.4-1.4-6.2-2.8c0.8-0.9,1.3-1.7,1.9-2.7c0.6-1.1,0.7-1.4,1.2-3.2h0.8c0.8,0,1.4,0,1.9,0.1V35c-0.6,0.1-1.1,0.1-2,0.1H86
		v-0.4c0-0.8,0-1.4,0.1-1.9h-2c0.1,0.5,0.1,1.1,0.1,1.9v0.4h-4.3c-0.8,0-1.4,0-2-0.1v1.8c0.6-0.1,1.2-0.1,1.9-0.1h0.7
		c0.5,1.5,0.8,2.3,1.4,3.3c0.6,1,0.8,1.3,1.9,2.5c-1.6,1.3-3.4,2.2-6.2,2.9c0.5,0.6,0.7,1,1,1.7c1.5-0.5,2.4-0.9,3.4-1.4
		c1.2-0.6,2.3-1.3,3.1-2.1c1.7,1.5,3.7,2.5,6.4,3.4C91.9,46.3,92.1,45.9,92.6,45.3 M85.1,41.3c-0.6-0.6-1-1.2-1.5-2
		c-0.6-0.9-0.8-1.5-1.2-2.7h5.2c-0.4,1.2-0.6,1.8-1.1,2.7C86.2,40.1,85.7,40.7,85.1,41.3 M74.3,46.1c0.3-0.6,0.4-1.5,0.6-3.6
		c-0.7-0.1-1.2-0.3-1.6-0.6c0,1.4-0.1,2.4-0.3,3c-0.1,0.4-0.3,0.4-1,0.4c-0.6,0-0.7,0-0.7-0.4v0l0-7c0-0.8,0-1.2,0.1-1.8
		c-0.6,0-1.1,0.1-1.9,0.1H68l-1,1.7h2.4l0,7.8c0,1.1,0.4,1.4,2.3,1.4C73.4,46.9,74,46.7,74.3,46.1 M66.8,34.2c0-0.7,0-1,0.1-1.5h-2
		c0.1,0.5,0.1,0.9,0.1,1.6c0,0.5,0,1,0,1.5v0.1h-2.2c-0.9,0-1.5,0-2-0.1v1.9c0.5-0.1,1.1-0.1,2-0.1h2c0,0.1,0,0.1,0,0.4
		c-0.2,1.5-0.6,2.8-1.2,4c-0.8,1.5-1.9,2.6-3.7,3.5c0.6,0.5,0.9,0.9,1.3,1.5c0.9-0.6,1.5-1,2.3-1.8c1.3-1.3,2.1-2.8,2.7-4.9
		c0.2-0.8,0.3-1.3,0.4-2.7C66.7,36.4,66.8,34.9,66.8,34.2 M54.9,34.8c0.6,0,1.3,0,1.8,0.1v-1.8c-0.5,0.1-1.1,0.1-1.8,0.1H44.3
		c-0.7,0-1.4,0-1.9-0.1v1.8c0.5-0.1,1.2-0.1,1.8-0.1h2.9v1.8h-2.1c-0.8,0-1.4,0-1.8-0.1c0.1,0.6,0.1,1.2,0.1,1.9v6.3
		c0,0.2,0,0.3,0,0.5c0,0.7,0,1.1-0.1,1.6c0.5-0.1,1-0.1,1.8-0.1v-4.3c0.4,0.3,0.8,0.7,1.2,1.1c1-0.7,1.5-1.2,1.9-2
		c0.4-0.8,0.5-1.7,0.7-3.1c0-0.1,0-0.2,0-0.3h1.5v3.1c0,0.6,0.1,0.9,0.4,1.1c0.2,0.2,0.6,0.2,1.6,0.2c0.3,0,0.5,0,0.7,0l0.9-1.5
		c-0.6,0-1.1,0-1.6,0c-0.4,0-0.5,0-0.5-0.3v-2.7h2.5v7h-7.9l-0.9,1.5h8.7c0.8,0,1.3,0,1.8,0.1c-0.1-0.4-0.1-1.1-0.1-2v-6.3
		c0-0.8,0-1.3,0.1-1.9c-0.5,0.1-1.1,0.1-1.8,0.1h-2.4v-1.8H54.9z M47.1,38.2c0,0.1,0,0.2,0,0.3c-0.1,1.1-0.3,2-0.7,2.6
		c-0.3,0.5-0.8,0.8-1.4,1.2v-4.1H47.1z M50.2,36.6h-1.4v-1.8h1.4V36.6z"/>
	<path class="st0" d="M170.1,19.7v-8.3c0-2.1-0.3-3.1-1.2-4c-0.9-1-2.5-1.5-4.7-1.5c-2.1,0-4.2,0.3-6.7,1v12.8h4.3V9.6
		c0.9-0.2,1.4-0.2,2-0.2c1.5,0,2,0.6,2,2.2v8.2H170.1 M155.1,12.8c0-4.3-2.6-7-6.8-7c-4.3,0-7,2.8-7,7.3c0,4.3,2.6,7,6.9,7
		C152.4,20,155.1,17.3,155.1,12.8 M150.8,12.9c0,2.4-1,3.7-2.6,3.7c-1.7,0-2.6-1.4-2.6-3.7c0-2.4,1-3.8,2.6-3.8
		C149.9,9.2,150.8,10.6,150.8,12.9 M139.6,12.8c0-4.3-2.6-7-6.8-7c-4.3,0-7,2.8-7,7.3c0,4.3,2.6,7,6.9,7
		C136.9,20,139.6,17.3,139.6,12.8 M135.2,12.9c0,2.4-1,3.7-2.6,3.7c-1.7,0-2.6-1.4-2.6-3.7c0-2.4,1-3.8,2.6-3.8
		C134.3,9.2,135.2,10.6,135.2,12.9 M119,19.7h4.3V0H119V19.7z M109.8,20c2,0,3.8-0.3,6.1-0.9V6.2h-4.3v10.1
		c-0.7,0.2-1.2,0.3-1.9,0.3c-1.4,0-2-0.6-2-2V6.2h-4.3v8.5c0,0.7,0.1,1,0.2,1.5c-0.7,0.3-1.2,0.4-1.9,0.4c-1.3,0-1.9-0.6-1.9-1.9
		V6.2h-4.3v8.7c0,1.9,0.3,3,1.2,3.8c0.9,0.9,2.3,1.3,4.2,1.3c1.7,0,3.1-0.3,4.8-1C107.1,19.7,108.1,20,109.8,20 M93.5,12.8
		c0-4.3-2.6-7-6.8-7c-4.3,0-7,2.8-7,7.3c0,4.3,2.6,7,6.9,7C90.8,20,93.5,17.3,93.5,12.8 M89.1,12.9c0,2.4-1,3.7-2.6,3.7
		c-1.7,0-2.6-1.4-2.6-3.7c0-2.4,1-3.8,2.6-3.8C88.2,9.2,89.1,10.6,89.1,12.9 M72.6,9.7l6-9.7h-5.4l-5.7,9.8l6.3,9.8h5.8L72.6,9.7z
		 M61.8,19.7h4.5V0h-4.5V19.7z M58.6,10.1l2.1-3.7h-6V0h-4.5v19.7h4.5v-9.6H58.6z M42,10.5c-0.1-0.1-0.2-0.3-0.2-0.5
		c0-0.6,0.7-0.9,1.8-0.9c1.2,0,2.2,0.3,3.5,0.9V6.6c-1.3-0.6-2.5-0.8-3.8-0.8c-3.5,0-5.7,1.6-5.7,4.3c0,1.9,0.8,2.9,3.4,4.1l1.7,0.8
		c0.4,0.2,0.7,0.5,0.7,0.8c0,0.6-0.6,0.9-1.7,0.9c-1.4,0-2.6-0.3-4.1-1.1v3.5c1.4,0.6,2.6,0.8,4.2,0.8c3.8,0,5.7-1.5,5.7-4.3
		c0-1.9-0.8-2.9-3.5-4.1c-0.7-0.3-1.3-0.6-1.7-0.8C42.3,10.7,42.1,10.6,42,10.5 M35.6,13.8c0-0.4,0-0.8,0-1c0-4.4-2.3-7-6.2-7
		c-4.1,0-6.8,2.8-6.8,7.2c0,4.4,2.6,6.9,7.2,6.9c1.8,0,3.5-0.4,5.1-1.3v-3.3c-1.3,0.9-2.8,1.4-4.5,1.4c-2.2,0-3.5-0.9-3.7-2.6h8.8
		L35.6,13.8z M31.7,11.3h-5C27,9.8,28,8.9,29.4,8.9C30.8,8.9,31.6,9.7,31.7,11.3 M14.2,20c2,0,3.8-0.3,6.1-0.9V6.2H16v10.1
		c-0.7,0.2-1.2,0.3-1.9,0.3c-1.4,0-2-0.6-2-2V6.2H7.9v8.5c0,0.7,0.1,1,0.2,1.5c-0.7,0.3-1.2,0.4-1.9,0.4c-1.3,0-1.9-0.6-1.9-1.9V6.2
		H0v8.7c0,1.9,0.3,3,1.2,3.8C2.1,19.5,3.5,20,5.4,20c1.7,0,3.1-0.3,4.8-1C11.4,19.7,12.4,20,14.2,20"/>
</g>
</svg>
