<?xml version="1.0" encoding="UTF-8"?>
<svg width="22px" height="24px" viewBox="0 0 22 24" version="1.1" xmlns="http://www.w3.org/2000/svg" xmlns:xlink="http://www.w3.org/1999/xlink">
    <title>Combined Shape</title>
    <g id="Page-1" stroke="none" stroke-width="1" fill="none" fill-rule="evenodd">
        <g id="01---Anchora-Homepage" transform="translate(-24.000000, -6745.000000)" fill="#FFFFFF" fill-rule="nonzero">
            <g id="Footer" transform="translate(0.000000, 6701.002464)">
                <g id="Light-Copy" transform="translate(24.000000, 43.000000)">
                    <path d="M2.91431925,16.6666667 C4.79314478,19.3550838 7.75848493,20.9968053 10.9553991,21.1185044 C14.0464414,21.0077358 16.9259046,19.46049 18.7981221,16.9043093 L21.6666667,19.391635 C19.0897385,22.8378923 15.1562481,24.8974478 10.9553991,25 C6.62177621,24.8879963 2.57988965,22.7077891 0,19.090621 L2.91431925,16.6666667 Z M10.8333333,1.66666667 C13.6828144,1.66666667 16.1152066,3.65445044 16.5859736,6.36780212 C17.0567406,9.0811538 15.4280667,11.725747 12.7341378,12.6223007 L12.7341378,12.6223007 L12.7341378,17.7503045 C12.1809354,18.1098419 11.5341356,18.31188 10.8676439,18.3333333 C10.1810785,18.3047123 9.51410455,18.1037604 8.93252885,17.7503045 L8.93252885,17.7503045 L8.93252885,12.6223007 C6.2386,11.725747 4.6099261,9.0811538 5.0806931,6.36780212 C5.55146011,3.65445044 7.98385225,1.66666667 10.8333333,1.66666667 Z M10.8195615,5 C9.44423666,5.00759484 8.33333333,6.12465589 8.33333333,7.5 C8.33333333,8.51238774 8.94394229,9.42482179 9.87980237,9.81094984 C10.8156624,10.1970779 11.8920108,9.98066201 12.6059023,9.26282681 C13.3197938,8.54499162 13.5302763,7.46746797 13.1389976,6.53375013 C12.747719,5.60003229 11.8319341,4.99447543 10.8195615,5 Z" id="Combined-Shape"></path>
                </g>
            </g>
        </g>
    </g>
</svg>