<svg xmlns="http://www.w3.org/2000/svg" viewBox="0 0 100.2 16.92"><defs><style>.cls-1{fill:#fcfcfc;}.cls-2{fill:#faa300;}</style></defs><g id="Layer_2" data-name="Layer 2"><g id="Layer_1-2" data-name="Layer 1"><path class="cls-1" d="M22.83.34l-6,15.85h3.71L21.71,13h6.13L29,16.19h3.84L26.92.34Zm0,9.41,1.95-5.48,1.9,5.48Z"/><path class="cls-1" d="M40,4.79a3.62,3.62,0,0,0-3.1,1.56V5.08H33.63V16.19H37V9.82a1.8,1.8,0,0,1,1.83-1.95,1.72,1.72,0,0,1,1.81,1.92v6.4h3.4v-7C44.07,6.77,42.82,4.79,40,4.79Z"/><path class="cls-1" d="M51.21,13.39a2.55,2.55,0,0,1-2.6-2.75,2.51,2.51,0,0,1,2.55-2.77A2.2,2.2,0,0,1,53.4,9.53l3-.92a5.2,5.2,0,0,0-5.35-3.87,5.73,5.73,0,0,0-5.85,5.9,5.79,5.79,0,0,0,6,5.88,5.27,5.27,0,0,0,5.3-3.86l-3-.92A2.28,2.28,0,0,1,51.21,13.39Z"/><path class="cls-1" d="M63.93,4.79a4.18,4.18,0,0,0-2.84,1V0h-3.4V16.19h3.4V9.66a1.79,1.79,0,0,1,1.83-1.79,1.73,1.73,0,0,1,1.82,1.92v6.4h3.39v-7C68.13,6.77,66.84,4.79,63.93,4.79Z"/><path class="cls-1" d="M75.2,4.74a5.74,5.74,0,0,0-5.9,5.88,5.91,5.91,0,0,0,11.81,0A5.74,5.74,0,0,0,75.2,4.74Zm0,8.65a2.51,2.51,0,0,1-2.5-2.77,2.52,2.52,0,1,1,5,0A2.49,2.49,0,0,1,75.2,13.39Z"/><path class="cls-1" d="M85.69,6.57V5.08H82.4V16.19h3.4V11.34c0-2.22,1.23-3,2.6-3a4.58,4.58,0,0,1,1.07.11V5.08A3.19,3.19,0,0,0,88.58,5,3.14,3.14,0,0,0,85.69,6.57Z"/><path class="cls-1" d="M100.07,14.47V9c0-2.28-1.32-4.29-4.92-4.29-3.26,0-4.74,2.1-4.87,3.69l3,.6a1.78,1.78,0,0,1,1.9-1.63c1.07,0,1.63.56,1.63,1.21,0,.38-.2.67-.81.76l-2.61.4c-1.83.27-3.29,1.39-3.29,3.36,0,1.76,1.41,3.37,3.85,3.37A3.51,3.51,0,0,0,97,14.94a5.64,5.64,0,0,0,.11,1.25h3.06A11.47,11.47,0,0,1,100.07,14.47Zm-3.31-2.64c0,1.72-1,2.21-2,2.21s-1.32-.56-1.32-1.14c0-.78.53-1.12,1.25-1.23l2.1-.33Z"/><path class="cls-2" d="M5.7,8.59v3.87a2.88,2.88,0,0,0,1.41.44,2.59,2.59,0,0,0,1.36-.44V8.59a4.25,4.25,0,1,0-2.77,0ZM7.08,2.76A1.82,1.82,0,1,1,5.27,4.58,1.82,1.82,0,0,1,7.08,2.76Z"/><path class="cls-2" d="M7.18,16.92A9.22,9.22,0,0,1,0,13.19l1.91-1.53a6.82,6.82,0,0,0,5.27,2.81,6.75,6.75,0,0,0,5.14-2.66l1.88,1.57A9.16,9.16,0,0,1,7.18,16.92Z"/></g></g></svg>