<svg id="Layer_1" data-name="Layer 1" xmlns="http://www.w3.org/2000/svg" viewBox="0 0 14.2 16.6"><defs><style>.cls-1{fill:#faa300;}</style></defs><g id="Layer_2" data-name="Layer 2"><g id="Layer_1-2" data-name="Layer 1-2"><path class="cls-1" d="M5.7,8.59v3.87a2.82,2.82,0,0,0,1.41.44,2.61,2.61,0,0,0,1.36-.44V8.59a4.25,4.25,0,1,0-2.77,0ZM7.08,2.76A1.82,1.82,0,1,1,5.27,4.59h0A1.81,1.81,0,0,1,7.08,2.76Z" transform="translate(0 -0.32)"/><path class="cls-1" d="M7.18,16.92A9.23,9.23,0,0,1,0,13.19l1.91-1.53a6.81,6.81,0,0,0,5.27,2.81,6.76,6.76,0,0,0,5.14-2.66l1.88,1.57A9.14,9.14,0,0,1,7.18,16.92Z" transform="translate(0 -0.32)"/></g></g></svg>