<?xml version="1.0" encoding="UTF-8"?>
<svg width="666px" height="140px" viewBox="0 0 666 140" version="1.1" xmlns="http://www.w3.org/2000/svg" xmlns:xlink="http://www.w3.org/1999/xlink">
    <title>Group 2</title>
    <g id="Lift" stroke="none" stroke-width="1" fill="none" fill-rule="evenodd">
        <g id="2-copy" transform="translate(-207.000000, -639.000000)" fill="#FFFFFF" fill-rule="nonzero">
            <g id="Group-2" transform="translate(207.106387, 639.000000)">
                <path d="M81,128 L81,101.803949 L27.5818966,101.803949 L27.5818966,5 L0,5 L0,128 L81,128 Z M117.735955,128 L117.735955,41.799458 L91.2640449,41.799458 L91.2640449,128 L117.735955,128 Z M89,15.4363144 C89,23.9349593 95.9662921,30.8726287 104.325843,30.8726287 C113.033708,30.8726287 120,23.9349593 120,15.4363144 C120,6.93766938 113.033708,0 104.325843,0 C95.9662921,0 89,6.93766938 89,15.4363144 Z M172.542522,1 C177.906158,1 182.577713,1.69398907 185,2.90846995 L185,2.90846995 L185,24.4221311 C183.615836,24.0751366 181.366569,23.5546448 177.214076,23.5546448 C172.542522,23.5546448 165.967742,25.636612 165.967742,35.1789617 L165.967742,35.1789617 L165.967742,41.7718579 L184.653959,41.7718579 L192.385941,51.9828186 L184.653959,63.9795082 L165.967742,63.9795082 L165.967742,128 L139.668622,128 L139.668622,63.9795082 L126,63.9795082 L126,41.7718579 L139.668622,41.7718579 L139.668622,34.3114754 C139.668622,14.5327869 151.607038,1 172.542522,1 Z M232.477513,17 L232.477513,41.7235023 L248.974303,41.7235023 L248.974303,64.4009217 L232.477513,64.4009217 L232.477513,96.1152074 C232.477513,103.105991 236.219053,104.981567 241.831363,104.981567 C244.552483,104.981567 247.103533,104.470046 248.634163,104.129032 L248.634163,104.129032 L248.634163,125.612903 C247.613743,126.124424 243.361993,128 235.198633,128 C217.681423,128 206.967012,117.599078 206.967012,100.718894 L206.967012,100.718894 L206.967012,64.4009217 L192.048141,64.4009217 L200.214297,51.9420235 L192.677143,41.7235023 L196.252602,41.7235023 C205.096242,41.7235023 209.347992,35.7557604 209.347992,27.9124424 L209.347992,27.9124424 L209.347992,17 L232.477513,17 Z" id="Combined-Shape-Copy-4"></path>
                <path d="M292.84,123 L292.84,117.4 C295.24,121.56 299.64,124.04 305.32,124.04 C316.76,124.04 323.24,115 323.24,103.56 C323.24,92.36 317.24,83.4 305.56,83.4 C299.16,83.4 294.68,86.52 292.84,89.96 L292.84,65.08 L285.4,65.08 L285.4,123 L292.84,123 Z M315.56,103.56 C315.56,111.88 311.08,117.32 304.2,117.32 C297.56,117.32 292.76,111.88 292.76,103.56 C292.76,95.24 297.56,90.04 304.2,90.04 C311.16,90.04 315.56,95.24 315.56,103.56 Z M338.536358,139.08 L363.576358,84.52 L355.496358,84.52 L343.976358,111.08 L331.976358,84.52 L323.336358,84.52 L339.896358,118.76 L330.296358,139.08 L338.536358,139.08 Z M426.249075,123 L434.729075,123 L412.169075,66.28 L403.129075,66.28 L380.569075,123 L388.969075,123 L394.969075,107.16 L420.089075,107.16 L426.249075,123 Z M407.449075,74.44 L417.289075,99.88 L397.769075,99.88 L407.449075,74.44 Z M446.745434,100.76 C446.745434,94.92 449.785434,90.2 455.705434,90.2 C462.425434,90.2 464.665434,94.52 464.665434,99.88 L464.665434,123 L472.185434,123 L472.185434,98.6 C472.185434,90.04 467.625434,83.4 458.425434,83.4 C453.945434,83.4 449.385434,85.24 446.585434,90.04 L446.585434,84.52 L439.225434,84.52 L439.225434,123 L446.745434,123 L446.745434,100.76 Z M498.041792,90.28 C504.601792,90.28 507.401792,94.68 508.361792,98.44 L515.161792,95.56 C513.561792,89.72 508.281792,83.32 498.041792,83.32 C487.081792,83.32 478.681792,91.72 478.681792,103.72 C478.681792,115.4 486.921792,124.2 498.121792,124.2 C508.121792,124.2 513.641792,117.72 515.481792,112.2 L508.841792,109.32 C507.961792,112.36 505.321792,117.24 498.121792,117.24 C491.881792,117.24 486.361792,112.52 486.361792,103.72 C486.361792,94.76 491.961792,90.28 498.041792,90.28 Z M529.498151,100.36 C529.658151,94.68 532.698151,90.2 538.458151,90.2 C545.178151,90.2 547.418151,94.52 547.418151,99.88 L547.418151,123 L554.938151,123 L554.938151,98.6 C554.938151,90.04 550.378151,83.4 541.178151,83.4 C536.778151,83.4 532.298151,84.92 529.498151,89 L529.498151,65.08 L521.978151,65.08 L521.978151,123 L529.498151,123 L529.498151,100.36 Z M581.114509,117.48 C574.714509,117.48 569.114509,112.68 569.114509,103.72 C569.114509,94.84 574.714509,90.04 581.114509,90.04 C587.514509,90.04 593.114509,94.84 593.114509,103.72 C593.114509,112.68 587.514509,117.48 581.114509,117.48 Z M581.114509,83.32 C569.594509,83.32 561.434509,92.04 561.434509,103.72 C561.434509,115.48 569.594509,124.2 581.114509,124.2 C592.634509,124.2 600.794509,115.48 600.794509,103.72 C600.794509,92.04 592.634509,83.32 581.114509,83.32 Z M629.450868,84.12 C629.050868,84.04 628.010868,83.88 626.970868,83.88 C623.050868,83.88 618.250868,85.32 615.450868,91.24 L615.450868,84.52 L608.090868,84.52 L608.090868,123 L615.610868,123 L615.610868,103.72 C615.610868,95.24 619.850868,91.88 626.170868,91.88 C627.210868,91.88 628.330868,91.96 629.450868,92.12 L629.450868,84.12 Z M632.747226,112.68 C632.747226,118.76 637.787226,124.2 645.627226,124.2 C652.507226,124.2 656.347226,120.52 658.027226,117.8 C658.027226,120.6 658.267226,122.04 658.427226,123 L665.787226,123 C665.627226,122.04 665.307226,120.04 665.307226,116.68 L665.307226,97.4 C665.307226,89.88 660.827226,83.32 649.307226,83.32 C640.987226,83.32 634.347226,88.44 633.547226,95.8 L640.747226,97.48 C641.227226,93 644.187226,89.72 649.467226,89.72 C655.307226,89.72 657.787226,92.84 657.787226,96.6 C657.787226,97.96 657.147226,99.16 654.827226,99.48 L644.427226,101 C637.787226,101.96 632.747226,105.8 632.747226,112.68 Z M646.667226,117.88 C642.827226,117.88 640.427226,115.16 640.427226,112.28 C640.427226,108.84 642.827226,107 646.027226,106.52 L657.787226,104.76 L657.787226,106.52 C657.787226,114.92 652.827226,117.88 646.667226,117.88 Z" id="Combined-Shape-Copy" fill-opacity="0.4"></path>
            </g>
        </g>
    </g>
</svg>