<?xml version="1.0" encoding="UTF-8"?>
<svg width="484px" height="250px" viewBox="0 0 484 250" version="1.1" xmlns="http://www.w3.org/2000/svg" xmlns:xlink="http://www.w3.org/1999/xlink">
    <title>Combined Shape Copy 3</title>
    <g id="Lift" stroke="none" stroke-width="1" fill="none" fill-rule="evenodd">
        <g id="1-copy-3" transform="translate(-298.000000, -415.000000)" fill-rule="nonzero" stroke="#F1B437" stroke-width="2">
            <path d="M456.083387,663.5 L456.083387,612.949808 L353.00314,612.949808 L353.00314,426.148438 L299.778699,426.148438 L299.778699,663.5 L456.083387,663.5 Z M526.9723,663.5 L526.9723,497.159892 L475.889786,497.159892 L475.889786,663.5 L526.9723,663.5 Z M471.520887,446.287263 C471.520887,462.686992 484.963654,476.074526 501.094974,476.074526 C517.898433,476.074526 531.341199,462.686992 531.341199,446.287263 C531.341199,429.887534 517.898433,416.5 501.094974,416.5 C484.963654,416.5 471.520887,429.887534 471.520887,446.287263 Z M632.731847,418.429688 C643.081989,418.429688 652.096629,419.76887 656.770887,422.112438 L656.770887,422.112438 L656.770887,463.627081 C654.099883,462.95749 649.7595,461.953104 641.746487,461.953104 C632.731847,461.953104 620.044576,465.97065 620.044576,484.384403 L620.044576,484.384403 L620.044576,497.106632 L656.103136,497.106632 L671.023444,516.810595 L656.103136,539.960457 L620.044576,539.960457 L620.044576,663.5 L569.295493,663.5 L569.295493,539.960457 L542.919324,539.960457 L542.919324,497.106632 L569.295493,497.106632 L569.295493,482.710425 C569.295493,444.543737 592.332906,418.429688 632.731847,418.429688 Z M748.38765,449.304688 L748.38765,497.013321 L780.221301,497.013321 L780.221301,540.773654 L748.38765,540.773654 L748.38765,601.972314 C748.38765,615.462342 755.607653,619.081617 766.437658,619.081617 C771.68857,619.081617 776.611299,618.094542 779.564937,617.436492 L779.564937,617.436492 L779.564937,658.893649 C777.595845,659.880724 769.391296,663.5 753.638562,663.5 C719.83582,663.5 699.160356,643.429471 699.160356,610.855991 L699.160356,610.855991 L699.160356,540.773654 L670.371597,540.773654 L686.129726,516.731873 L671.585374,497.013321 L678.484893,497.013321 C695.550355,497.013321 703.754904,485.497444 703.754904,470.362291 L703.754904,470.362291 L703.754904,449.304688 L748.38765,449.304688 Z" id="Combined-Shape-Copy-3"></path>
        </g>
    </g>
</svg>