<?xml version="1.0" encoding="UTF-8"?>
<svg width="853px" height="145px" viewBox="0 0 853 145" version="1.1" xmlns="http://www.w3.org/2000/svg" xmlns:xlink="http://www.w3.org/1999/xlink">
    <title>Light Copy</title>
    <g id="Page-1" stroke="none" stroke-width="1" fill="none" fill-rule="evenodd">
        <g id="01---Anchora-Homepage" transform="translate(-439.000000, -519.000000)" fill-rule="nonzero">
            <g id="Hero" transform="translate(-113.153299, 0.000000)">
                <g id="Light-Copy" transform="translate(552.153299, 519.500000)">
                    <path d="M196.96852,0 L146.6,134.4 L177.744535,134.4 L187.566396,107.35041 L239.026234,107.35041 L248.764147,134.4 L281,134.4 L231.303061,0 L196.96852,0 Z M196.96852,79.7920505 L213.338289,33.3244164 L229.28832,79.7920505 L196.96852,79.7920505 Z" id="Shape" fill="#FFFFFF"></path>
                    <path d="M343.466489,38.4173304 C333.246009,38.0680634 323.55226,43.0168832 317.738684,51.551801 L317.738684,40.8589948 L290.6,40.8589948 L290.6,134.4 L318.568613,134.4 L318.568613,80.7675785 C318.215139,76.4899131 319.666412,72.2608378 322.561995,69.1306779 C325.457578,66.0005179 329.525812,64.2629416 333.756317,64.3494903 C337.976222,64.0951049 342.090229,65.7512886 344.990002,68.8718561 C347.889775,71.9924236 349.277031,76.2563805 348.778035,80.5149925 L348.778035,134.4 L376.995627,134.4 L376.995627,75.4632731 C377.244606,55.0880046 366.870491,38.4173304 343.466489,38.4173304 Z" id="Path" fill="#FFFFFF"></path>
                    <path d="M437.668605,108.885994 C431.544109,109.019305 425.647152,106.660986 421.438468,102.395215 C417.229784,98.1294439 415.103066,92.3552547 415.585122,86.5029692 C414.949926,80.671294 416.960079,74.8591942 421.104147,70.5454103 C425.248216,66.2316264 431.126683,63.8320379 437.243923,63.9571587 C446.134518,63.5436664 454.095352,69.1970772 456.269693,77.4683665 L481.750635,69.9802272 C476.395812,50.429643 457.36236,37.2359431 436.309622,38.4812068 C422.971881,38.2077601 410.10174,43.1929672 400.708602,52.2711453 C391.315464,61.3493234 386.222932,73.7244861 386.621785,86.5029692 C386.403126,99.4301708 391.736291,111.87574 401.372303,120.925046 C411.008316,129.974353 424.100816,134.832568 437.583669,134.361946 C458.388372,135.198143 477.047054,122.175946 482.6,102.944318 L457.119058,95.4561792 C454.653888,103.702622 446.611911,109.255308 437.668605,108.885994 L437.668605,108.885994 Z" id="Path" fill="#FFFFFF"></path>
                    <path d="M549.441379,39.7638048 C540.850871,39.5062458 532.472376,42.4655315 525.937931,48.0652254 L525.937931,0 L497.8,0 L497.8,134.4 L525.937931,134.4 L525.937931,80.1917233 C525.936935,76.1925145 527.543029,72.3617249 530.393168,69.565275 C533.243306,66.7688251 537.096858,65.2428124 541.082759,65.3321804 C545.296448,65.0855073 549.40394,66.7164507 552.307698,69.7892163 C555.211456,72.8619819 556.61556,77.0634265 556.144828,81.270908 L556.144828,134.4 L584.2,134.4 L584.2,76.2900556 C584.2,56.2006177 573.524138,39.7638048 549.441379,39.7638048 Z" id="Path" fill="#FFFFFF"></path>
                    <path d="M641.759339,38.4213963 C628.964753,38.0524324 616.584093,43.0775657 607.518006,52.3194659 C598.451919,61.561366 593.497081,74.2079074 593.814352,87.296152 C594.873582,113.618498 616.044108,134.4 641.799971,134.4 C667.555833,134.4 688.726359,113.618498 689.78559,87.296152 C690.10387,74.1930509 685.138052,61.5330807 676.054007,52.2885427 C666.969961,43.0440048 654.567816,38.0291619 641.759339,38.4213963 Z M641.759339,110.320484 C635.977081,110.328738 630.463114,107.826309 626.588994,103.435659 C622.714874,99.0450081 620.844701,93.1787794 621.443667,87.296152 C620.445982,79.2445462 624.085365,71.3280766 630.784221,66.9783647 C637.483077,62.6286527 646.035602,62.6286527 652.734457,66.9783647 C659.433313,71.3280766 663.072697,79.2445462 662.075012,87.296152 C662.727471,93.1905172 660.875928,99.0879074 656.990292,103.49161 C653.104657,107.895312 647.55848,110.381968 641.759339,110.320484 L641.759339,110.320484 Z" id="Shape" fill="#FFFFFF"></path>
                    <path d="M726.20396,51.902497 L726.20396,39.1248172 L699.4,39.1248172 L699.4,134.4 L727.100141,134.4 L727.100141,92.8082235 C727.100141,73.7703382 737.121075,67.0813515 748.282603,67.0813515 C751.213515,67.0342832 754.139488,67.3509058 757,68.0246701 L757,39.1248172 C754.625578,38.5391726 752.184662,38.308224 749.749081,38.4387673 C740.116872,37.89525 731.013149,43.1010025 726.20396,51.902497 Z" id="Path" fill="#FFFFFF"></path>
                    <path d="M852.142006,118.0518 L852.142006,73.4108832 C852.142006,54.8037005 840.816485,38.4 809.928699,38.4 C781.958093,38.4 769.259782,55.5381946 768.144389,68.5142562 L793.884211,73.4108832 C794.568478,65.4771909 801.838139,59.5450747 810.186097,60.1083798 C819.366634,60.1083798 824.1714,64.678565 824.1714,69.9832443 C824.1714,73.0844414 822.455412,75.4511444 817.221648,76.1856385 L794.828004,79.4500565 C779.126713,81.6535387 766.6,90.7939091 766.6,106.871168 C766.6,121.234607 778.697716,134.37389 799.632771,134.37389 C810.038863,134.796138 819.935611,130.073925 825.801589,121.887491 C825.716275,125.310732 826.032832,128.732339 826.745382,132.088797 L853,132.088797 C852.344431,127.436875 852.057624,122.744642 852.142006,118.0518 L852.142006,118.0518 Z M823.742403,96.5066406 C823.742403,110.543638 815.162463,114.54255 806.582522,114.54255 C798.002582,114.54255 795.257001,109.972365 795.257001,105.238959 C795.257001,98.8733437 799.804369,96.0985884 805.981927,95.2008734 L823.999801,92.5077286 L823.742403,96.5066406 Z" id="Shape" fill="#FFFFFF"></path>
                    <path d="M51.4513662,72.7044522 L51.4513662,102.241754 C54.8012422,104.27766 58.6430124,105.435143 62.5976288,105.6 C66.4366211,105.476429 70.1621878,104.312689 73.3486338,102.241754 L73.3486338,72.7044522 C88.865664,67.5403027 98.2468257,52.3074459 95.5352077,36.6785402 C92.8235898,21.0496346 78.8130111,9.6 62.4,9.6 C45.9869889,9.6 31.9764102,21.0496346 29.2647923,36.6785402 C26.5531743,52.3074459 35.934336,67.5403027 51.4513662,72.7044522 Z M62.3206742,28.8 C68.1519402,28.7681785 73.4268614,32.256186 75.6806264,37.6344007 C77.9343915,43.0126155 76.7220124,49.2191517 72.6099972,53.3538824 C68.4979821,57.4886132 62.2982157,58.7351686 56.9076616,56.5110711 C51.5171076,54.2869735 48,49.0313534 48,43.2000033 C48,35.2780179 54.3988032,28.8437463 62.3206742,28.8 L62.3206742,28.8 Z" id="Shape" fill="#F1B437"></path>
                    <path d="M63.1030986,144 C38.141431,143.354859 14.8601644,130.796865 0,109.961977 L16.7864789,96 C27.608514,111.485283 44.6888732,120.941598 63.1030986,121.642586 C80.9075023,121.004558 97.4932107,112.092422 108.277183,97.3688213 L124.8,111.695817 C109.956894,131.54626 87.299989,143.409299 63.1030986,144 Z" id="Path" fill="#F1B437"></path>
                </g>
            </g>
        </g>
    </g>
</svg>