<?xml version="1.0" encoding="UTF-8"?>
<svg width="101px" height="101px" viewBox="0 0 101 101" version="1.1" xmlns="http://www.w3.org/2000/svg" xmlns:xlink="http://www.w3.org/1999/xlink">
    <title>Group 19</title>
    <g id="Page-1" stroke="none" stroke-width="1" fill="none" fill-rule="evenodd" stroke-linecap="round" stroke-linejoin="round">
        <g id="01---Anchora-Homepage" transform="translate(-619.000000, -1621.000000)" stroke="#E26245" stroke-width="2">
            <g id="We-do-This" transform="translate(102.000000, 1327.761957)">
                <g id="Group-19" transform="translate(518.166667, 294.500000)">
                    <circle id="Oval" cx="49" cy="49" r="49"></circle>
                    <path d="M48.3654038,29.4822351 L32.7103675,29.4822351 C30.240071,29.4822351 28.2375,31.4848061 28.2375,33.9551027 L28.2375,65.2651753 C28.2375,67.7354718 30.240071,69.7380428 32.7103675,69.7380428 L64.0204401,69.7380428 C66.4907366,69.7380428 68.4933076,67.7354718 68.4933076,65.2651753 L68.4933076,49.610139" id="Path"></path>
                    <path d="M65.138657,26.1275845 C66.9913794,24.2748622 69.9952358,24.2748622 71.8479582,26.1275846 C73.7006806,27.9803069 73.7006806,30.9841634 71.8479583,32.8368858 L50.6018376,54.0830065 L41.6561025,56.3194402 L43.8925363,47.3737052 L65.138657,26.1275845 Z" id="Path"></path>
                </g>
            </g>
        </g>
    </g>
</svg>