<?xml version="1.0" encoding="utf-8"?>
<!-- Generator: Adobe Illustrator 24.1.2, SVG Export Plug-In . SVG Version: 6.00 Build 0)  -->
<svg version="1.1" id="layer" xmlns="http://www.w3.org/2000/svg" xmlns:xlink="http://www.w3.org/1999/xlink" x="0px" y="0px"
	 viewBox="0 0 680 150" style="enable-background:new 0 0 680 150;" xml:space="preserve">
<g id="Layer_2_1_">
	<g id="Layer_1-2">
		<path d="M40,93.2V56.8h25.5v8H49.4v7.4h14.8v8H49.4v12.9H40z"/>
		<path d="M92.9,93.2h-9.4V56.8h9.4V93.2z"/>
		<path d="M111,81.8c3.6,2.5,7.9,3.9,12.3,4.1c2.8,0,5.4-0.6,5.4-3.1c0-1.7-1.2-2.4-3.1-2.9l-5.5-1.7c-6.1-1.8-9.3-4.7-9.3-10.5
			c0-6.9,6.1-11.4,13.9-11.4c3.9-0.1,7.8,0.9,11.2,2.7v8.7c-3.2-2.3-7-3.5-11-3.6c-2.8,0-4.8,0.8-4.8,2.8c0,1.5,1,2.2,2.9,2.7
			l5.5,1.7c6.6,2.2,9.6,5.2,9.6,10.6c0,7.8-7,11.8-14.8,11.8c-4.3,0-8.5-1-12.3-3.1C111,90.6,111,81.8,111,81.8z"/>
		<path d="M188.7,57v36.3h-9.4V78.8h-13.9v14.5H156V57h9.4v13.8h13.9V57L188.7,57L188.7,57z"/>
		<path d="M234.6,57v8h-16.5v5.7h15.1v8h-15.1v6.5h16.5v8h-25.8V57H234.6z"/>
		<path d="M254.1,57h15.4c8.1,0,14.2,4.4,14.2,12.5c0.2,5.2-3,9.8-7.9,11.4l9.6,12.3h-10.9l-8.6-11.2h-2.4v11.2h-9.4L254.1,57
			L254.1,57z M263.5,73.9h5.4c3.4,0,5.6-1.8,5.6-4.5c0-2.8-2.2-4.5-5.6-4.5h-5.4V73.9z"/>
		<path d="M341.8,90.2c-2.8,2.4-6.4,3.7-10,3.6c-7.7,0-14-5-14-13.3c0.1-4.8,2.5-9.3,6.5-12l-3.5-4.5v-7.1h24.3v8h-12.9l9.8,12.5
			l2.3-3.4h9.8l-7,10l7.2,9.1h-9.9L341.8,90.2z M336.8,84.1l-7.6-9.4c-1.9,1.3-3.1,3.5-3.1,5.8c0,3,2.4,5.5,5.4,5.6
			c0.1,0,0.2,0,0.2,0C333.6,86.1,335.4,85.3,336.8,84.1z"/>
		<path d="M397.9,93.2h-9.5V56.8h15.4c8.1,0,14.2,4.4,14.2,12.5s-6.1,12.5-14.2,12.5h-6L397.9,93.2z M397.9,73.9h5.4
			c3.4,0,5.6-1.8,5.6-4.5c0-2.7-2.2-4.5-5.6-4.5h-5.4V73.9z"/>
		<path d="M453.8,86.4h-14.5l-2.6,6.7h-9.3L442.2,57h9l14.7,36.3h-9.5L453.8,86.4z M442.4,78.4h8.4l-4.3-10.6L442.4,78.4z"/>
		<path d="M485.8,93.2V79.1l-13.7-22.2h10.6l8.1,14l8.1-14h10l-13.7,22.2v14L485.8,93.2z"/>
		<path d="M531.8,72.3L543.3,57h11l-13.4,17.4l13.9,18.9h-11.2l-11.9-16.2v16.2h-9.4V57h9.4L531.8,72.3z"/>
		<path d="M594.8,57v8h-16.5v5.7h15.1v8h-15.1v6.5h16.5v8H569V57H594.8z"/>
		<path d="M614.2,57h9.4v28.3H640v8h-25.8V57L614.2,57z"/>
	</g>
</g>
</svg>
