<?xml version="1.0" encoding="UTF-8"?>
<svg width="35px" height="37px" viewBox="0 0 35 37" version="1.1" xmlns="http://www.w3.org/2000/svg" xmlns:xlink="http://www.w3.org/1999/xlink">
    <title>Group</title>
    <g id="Page-1" stroke="none" stroke-width="1" fill="none" fill-rule="evenodd">
        <g id="03---Anchora-Menu" transform="translate(-24.000000, -28.000000)" fill="#2C1C2E" fill-rule="nonzero">
            <g id="Group" transform="translate(24.000000, 28.000000)">
                <path d="M14.1644386,17.3725054 L14.1644386,25.5040543 C15.0866515,26.0645343 16.1442817,26.3831867 17.2329782,26.4285714 C18.2898436,26.3945526 19.3154833,26.0741779 20.1927042,25.5040543 L20.1927042,17.3725054 C24.4645057,15.9508274 27.0471172,11.7572582 26.3006152,7.45465765 C25.5541133,3.15205713 21.6970343,0 17.1785714,0 C12.6601086,0 8.8030296,3.15205713 8.05652763,7.45465765 C7.31002567,11.7572582 9.89263714,15.9508274 14.1644386,17.3725054 Z M17.1567332,5.28571429 C18.7620669,5.2769539 20.2142401,6.23719405 20.8346963,7.71780377 C21.4551524,9.19841349 21.1213873,10.9070581 19.9893594,12.0453397 C18.8573314,13.1836212 17.1505504,13.5267949 15.6665438,12.9145062 C14.1825371,12.3022174 13.2142857,10.8553577 13.2142857,9.2500009 C13.2142857,7.0690972 14.975861,5.29775753 17.1567332,5.28571429 L17.1567332,5.28571429 Z" id="Shape-Copy"></path>
                <path d="M17.3721328,37 C10.5002451,36.8223941 4.09096787,33.3652085 0,27.6294134 L4.62127767,23.7857143 C7.60055816,28.0487758 12.3027404,30.6520769 17.3721328,30.845057 C22.2736427,30.6694096 26.8396488,28.2159198 29.8084507,24.1625475 L34.3571429,28.1067355 C30.2708711,33.5715149 24.0334791,36.8373815 17.3721328,37 Z" id="Path-Copy"></path>
            </g>
        </g>
    </g>
</svg>