<?xml version="1.0" encoding="UTF-8"?>
<svg width="101px" height="101px" viewBox="0 0 101 101" version="1.1" xmlns="http://www.w3.org/2000/svg" xmlns:xlink="http://www.w3.org/1999/xlink">
    <title>Group 20</title>
    <g id="Page-1" stroke="none" stroke-width="1" fill="none" fill-rule="evenodd" stroke-linecap="round" stroke-linejoin="round">
        <g id="01---Anchora-Homepage" transform="translate(-1011.000000, -1621.000000)" stroke="#62C6E7" stroke-width="2">
            <g id="We-do-This" transform="translate(102.000000, 1327.761957)">
                <g id="Group-20" transform="translate(910.833333, 294.500000)">
                    <circle id="Oval" cx="49" cy="49" r="49"></circle>
                    <circle id="Oval" cx="49" cy="49" r="6.13636364"></circle>
                    <path d="M64.1363636,55.1363636 C63.5792913,56.3985933 63.8465925,57.8727999 64.8113636,58.8590909 L64.9340909,58.9818182 C65.7022697,59.7491429 66.1339,60.7903713 66.1339,61.8761364 C66.1339,62.9619015 65.7022697,64.0031299 64.9340909,64.7704545 C64.1667662,65.5386334 63.1255378,65.9702636 62.0397727,65.9702636 C60.9540076,65.9702636 59.9127792,65.5386334 59.1454545,64.7704545 L59.0227273,64.6477273 C58.0364362,63.6829562 56.5622297,63.415655 55.3,63.9727273 C54.0635828,64.5026397 53.2599105,65.7161849 53.2545455,67.0613636 L53.2545455,67.4090909 C53.2545455,69.6684376 51.4229831,71.5 49.1636364,71.5 C46.9042897,71.5 45.0727273,69.6684376 45.0727273,67.4090909 L45.0727273,67.225 C45.0403203,65.839554 44.1642832,64.6147242 42.8636364,64.1363636 C41.6014067,63.5792913 40.1272001,63.8465925 39.1409091,64.8113636 L39.0181818,64.9340909 C38.2508571,65.7022697 37.2096287,66.1339 36.1238636,66.1339 C35.0380985,66.1339 33.9968701,65.7022697 33.2295455,64.9340909 C32.4613666,64.1667662 32.0297364,63.1255378 32.0297364,62.0397727 C32.0297364,60.9540076 32.4613666,59.9127792 33.2295455,59.1454545 L33.3522727,59.0227273 C34.3170438,58.0364362 34.584345,56.5622297 34.0272727,55.3 C33.4973603,54.0635828 32.2838151,53.2599105 30.9386364,53.2545455 L30.5909091,53.2545455 C28.3315624,53.2545455 26.5,51.4229831 26.5,49.1636364 C26.5,46.9042897 28.3315624,45.0727273 30.5909091,45.0727273 L30.775,45.0727273 C32.160446,45.0403203 33.3852758,44.1642832 33.8636364,42.8636364 C34.4207087,41.6014067 34.1534075,40.1272001 33.1886364,39.1409091 L33.0659091,39.0181818 C32.2977303,38.2508571 31.8661,37.2096287 31.8661,36.1238636 C31.8661,35.0380985 32.2977303,33.9968701 33.0659091,33.2295455 C33.8332338,32.4613666 34.8744622,32.0297364 35.9602273,32.0297364 C37.0459924,32.0297364 38.0872208,32.4613666 38.8545455,33.2295455 L38.9772727,33.3522727 C39.9635638,34.3170438 41.4377703,34.584345 42.7,34.0272727 L42.8636364,34.0272727 C44.1000535,33.4973603 44.9037259,32.2838151 44.9090909,30.9386364 L44.9090909,30.5909091 C44.9090909,28.3315624 46.7406533,26.5 49,26.5 C51.2593467,26.5 53.0909091,28.3315624 53.0909091,30.5909091 L53.0909091,30.775 C53.0962741,32.1201787 53.8999465,33.333724 55.1363636,33.8636364 C56.3985933,34.4207087 57.8727999,34.1534075 58.8590909,33.1886364 L58.9818182,33.0659091 C59.7491429,32.2977303 60.7903713,31.8661 61.8761364,31.8661 C62.9619015,31.8661 64.0031299,32.2977303 64.7704545,33.0659091 C65.5386334,33.8332338 65.9702636,34.8744622 65.9702636,35.9602273 C65.9702636,37.0459924 65.5386334,38.0872208 64.7704545,38.8545455 L64.6477273,38.9772727 C63.6829562,39.9635638 63.415655,41.4377703 63.9727273,42.7 L63.9727273,42.8636364 C64.5026397,44.1000535 65.7161849,44.9037259 67.0613636,44.9090909 L67.4090909,44.9090909 C69.6684376,44.9090909 71.5,46.7406533 71.5,49 C71.5,51.2593467 69.6684376,53.0909091 67.4090909,53.0909091 L67.225,53.0909091 C65.8798213,53.0962741 64.666276,53.8999465 64.1363636,55.1363636 Z" id="Path"></path>
                </g>
            </g>
        </g>
    </g>
</svg>